<svg xmlns="http://www.w3.org/2000/svg" preserveAspectRatio="xMinYMin slice" xmlns:xlink="http://www.w3.org/1999/xlink" width="360" height="640" viewBox="0 0 360 640">
    <defs>
        <linearGradient id="b" x1="50%" x2="50%" y1="100%" y2="8.469%">
            <stop offset="0%" stop-color="#61b58e"/>
            <stop offset="100%" stop-color="#61b58e"/>
        </linearGradient>
        <path id="a" d="M0 0h360v640H0z"/>
    </defs>
    <g fill="none" fill-rule="evenodd">
        <mask id="c" fill="#fff">
            <use xlink:href="#a"/>
        </mask>
        <use fill="url(#b)" xlink:href="#a"/>
        <g stroke="#FFF" stroke-linecap="round" stroke-linejoin="round" mask="url(#c)" opacity=".2">
            <path d="M294.391 439.905l-1.69-24.79 24.132 7.515 9.03-23.744 19.648-9.656 5.882 12.178 15.745 7.29 6.208-21.544 6.896 22.154-4.13 17.43-.53 19.269-16.245 4.824-10.714-9.058-8.977-17.977-18.412 17.2-27.063-.732 22.658-16.74 34.564-22.116 24.72 25.33-36.548-3.213 11.828-22.117 8.011 49.779 16.708-24.45-27.489 15.036-7.97-1.51-23.382-17.363"/>
            <path d="M293.259 415.348l33.161-16.191 23.925 2.922M388.603 369.532l-17.736-7.98-9.325-7.512h-46.596l-21.172-7.92 9.742-8.588-8.37-1.23-1.372 9.819"/>
            <path d="M272.379 306.954l-12.65 21.05 2.903 17.41 4.152 8.183 27.923-7.127M287.355 260.356l-8.823 18.073-13.268 11.195 7.115 17.33"/>
            <path d="M279.739 243.675l-36.52 9.574 12.237 24.714 12.77-18.78 20.235 2.014 13.901-3.672 10.623-20.224-5.967-6.035-1.825-9.055-19.15 6.224-6.619-20.703 33.495-10.203-29.293-13.45-4.26-22.186 20.523 3.988M337.813 172.956l15.848-14.549-9.991-9.529-13.867 3.839-17.625-5.624"/>
            <path d="M274.068 306.191l-13.517-5.096-5.095-23.132-24.589-8.264-16.779 4.03-12.029 7.462-6.492 13.685 3.453 9.555.157.436-3.962 11.141-7.042-13.13 11.688 1.99"/>
            <path d="M183.39 291.578l-3.319-12.192 15.561-23.898-19.06 5.71-19.007 1.22 8.261-17.914 19.953-13.996 29.915 22.149-1.606 21.073-18.456-20.21 9.303 29.439-25.233-3.4M295.146 336.303l-28.362 17.293M303.516 337.532l57.898 16.064M312.111 148.878l-11.887 17.958-16.597 17.242 54.252-10.392 13.618 9.196 2.164-23.063-24.707-6.83 8.925 20.697-26.108 25.36 17.116 3.166-23.328 17.671-25.07-12.325-8.11 19.132 7.359 16.417 6.305 17.6-31.505 15.75-39.884-25.564 16.968-17.259-20.504-6.12 22.27-11.685 15.317-9.342 9.272 16.794-13.486 29.968 28.155-27.078-18.632-45.289-28.999 1.35-20.013 22.87 27.631 10.913-7.594-32.805-19.061-20.03 10.425-14.03 16.23-1.787 19.851 8.31 19.139-9.797 8.559 16.237-25.697 18.562-5.78 25.812-16.956 27.127 12.445 19.455-13.327 16.63"/>
            <path d="M210.662 225.48l-25.526 3.369 10.078 25.825-29.388-10.17 10.257 16.204 3.21 18.678-20.526-17.376-13.846-23.38 12.433-7.717 8.472-19.746-8.26-6.123-13.417 1.132 13.817-24.08 27.104 22.948 8.996-17.19-19.836-19.613 31.432-4.154-.727 42.413-21.48 22.878-16.203-19.965 18.901-4.37-12.816-34.728-2.562-20.193 14.295-11.74-17.126-2.076-24.507 9.05-13.67 22.87-23.705-8.406 6.821-14.192-11.096-12.152-17.216 22.472 12.122-3.863 6.067 32.074 1.581 18.142-31.45 1.368 1.96-24.066 29.557 4.556 25.868-17.005M62.308 263.222l30.192 3.963 15.86-1.51 13.781 18.995-14.093 13.37-23.554-5.095L64.82 280.92l-2.83-17.636"/>
            <path d="M147.811 179.602l-17.535-12.449 11.5 40.72-15.794 19.24-20.713-23.867-13.979 24.269 14.772 19.82 32.6 7.129 6.26-15.834-17.65-9.925-32.845-1.19h-22.18M41.942 253.656l-23.705 1.832 14.234 16.227-17.857 20.045-20.685-14.618 3.595-24.712-24.39-1.994-21.025 14.914 19.214 10.815 10.223-11.25-5.838 32.793-29.89-16.155-1.5 8.508 4.332 12.546 9.507 15.798 21.137 1.692 19.896-8.613-23.482-13.776 18.22-20.566 5.262 34.342 25.544.182 19.456-15.001-11.72-24.95 29.839-8.493 45.739 34.818 2.948 24.768L98.62 338.68l-18.79-3.924-8.781-12.394 16.356-9.605 11.023 25.972-8.881 13.493-16.657 11.665-23.522.644 14.926-26.65-17.53 3.398-5.8-13.648 17.962-16.95 25.569-17.736 2.91 19.812-7.575 22.195-15.486 2.764"/>
            <path d="M39.027 122.119l-6.724 3.89-.541 23.516-10.973 12.36-13.777 2.257L20.526 181.6l4.585 18.582-15.66 8.66-4.977-14.991-19.063 12.165-3.366 16.979-12.233 1.929 15.6-18.908 24.04 2.827L20.526 181.6l26.885-1.174 6.406 16.258-2.425 17.525-17.366 1.228 13.81-36.118 11.056-28.545-27.13-1.25 14.195 30.644 29.764-.565-16.83-28.83 26.268 5.176-9.438 23.654-20.88 16.74 18.048 7.327 29.871-19.511 41.39 22.017-39.81-3.875-32.393 24.812 20.262 39.765 14.026-19.272 2.125 18.67 30.301-11.812-17.707 30.119 36.612-22.165-18.905-7.954-12.678-27.351-19.372 20.222"/>
            <path d="M143.438 206.5l14.462 22.93 7.927 15.074-20.905-5.874-2.301-32.855 5.19-26.172 9.544 2.63 16.876-13.992-29.42-22.613-32.611-.271-16.168 6.727 10.692 7.182 36.78-14.966 25.887 5.29 37.337 13.719-21.658-24.927 25.055 2.076 5.102 6.906 7.572-6.906 10.59 5.86-8.416 35.915-31.768 5.62 13.523-24.544 45.756-8.393.756 25.966 18.384-35.006h12.9l15.365 20.005 11.882 31.997 18.257-46.074-17.966-4.485-26.432-1.691-6.263 16.266"/>
            <path d="M255.566 182.097l27.495 2.892-2.572 21.86-31.784-.361-22.677-22.598 25.775-27.971 27.935 7.912M-2.477 252.43l19.89 2.244-2.866 36.357 9.133 19.92-12.174 22.791 8.73 14.601 20.728-20.713 30.084-5.268-12.122-11.682-14.803-12.855 20.697-16.904-5.894 29.76 4.45 26.716 9.514 26.49L92.285 375.9l-.808 17.473-15.344-9.4-3.243-20.086-24.427 24.82L32.47 373.07l17.314-8.539-3.019-23.252-24.044 22.61-1.526 22.554 1.526 9.33 22.183 10.072 3.56-17.137 21.514 17.623-5.662 21.29-19.533 5.26-11.635 13.881-1.535-33.87 13.291-7.047 25.074.486 6.155-22.357-26.349-19.797-29.548-15.833 2.485 15.544 9.75 9.182-9.75 22.702 25.742-7.064M302.362 257.525l-7.971-11.02-15.06-3.398 27.686-11.84-20.694-1.83-14.633-2.89-13.909-2.83-26.904 10.38 1.756-18.082"/>
            <path d="M268.226 258.613l-25.006-5.364-27.526-3.414-5.099-23.288-5.66-20.047-18.782-1.457-1.44 24.335-26.813.052-31.918-2.317M332.27 243.675l13.79-6.997-.54-15.443-13.25 22.44"/>
        </g>
    </g>
</svg>
