<svg xmlns="http://www.w3.org/2000/svg" width="42" height="42" viewBox="0 0 42 42">
    <g fill="none" fill-rule="evenodd" transform="translate(1 1)">
        <rect width="40" height="40" fill="#FFF" stroke="#F1F1F1" rx="5"/>
        <path stroke="#3FB17C" stroke-linecap="round" stroke-linejoin="round" d="M27 23.444v2.1a1.4 1.4 0 0 1-1.526 1.4 13.853 13.853 0 0 1-6.041-2.149 13.65 13.65 0 0 1-4.2-4.2 13.853 13.853 0 0 1-2.149-6.069A1.4 1.4 0 0 1 14.477 13h2.1a1.4 1.4 0 0 1 1.4 1.204c.089.672.253 1.332.49 1.967a1.4 1.4 0 0 1-.315 1.477l-.889.889a11.2 11.2 0 0 0 4.2 4.2l.889-.889a1.4 1.4 0 0 1 1.477-.315 8.988 8.988 0 0 0 1.967.49A1.4 1.4 0 0 1 27 23.444z"/>
    </g>
</svg>
