<svg xmlns="http://www.w3.org/2000/svg" width="30" height="25" viewBox="0 0 30 25">
    <path fill="#3FB17C" fill-rule="nonzero" d="M3.571 25A3.587 3.587 0 0 1 0 21.429V7.143A3.587 3.587 0 0 1 3.571 3.57h4.275l1.16-2.89C9.167.27 9.562 0 10 0h10c.44.002.833.272.993.68l1.161 2.891h4.275A3.587 3.587 0 0 1 30 7.143v14.286A3.587 3.587 0 0 1 26.429 25H3.57zm0-2.143H26.43c.81 0 1.428-.618 1.428-1.428V7.143c0-.81-.618-1.429-1.428-1.429h-5c-.437 0-.83-.265-.994-.67l-1.16-2.901h-8.55l-1.16 2.902c-.164.404-.557.67-.994.67h-5c-.81 0-1.428.618-1.428 1.428v14.286c0 .81.618 1.428 1.428 1.428zM15 21.071c-3.735 0-6.786-3.05-6.786-6.785C8.214 10.55 11.265 7.5 15 7.5c3.735 0 6.786 3.05 6.786 6.786 0 3.735-3.051 6.785-6.786 6.785zm0-2.142a4.627 4.627 0 0 0 4.643-4.643A4.627 4.627 0 0 0 15 9.643a4.627 4.627 0 0 0-4.643 4.643A4.627 4.627 0 0 0 15 18.929z"/>
</svg>
