<svg xmlns="http://www.w3.org/2000/svg" width="42" height="42" viewBox="0 0 42 42">
    <g fill="none" fill-rule="evenodd" transform="translate(1 1)">
        <rect width="40" height="40" fill="#FFF" stroke="#F1F1F1" rx="5"/>
        <g stroke="#61b58e" stroke-linecap="round" stroke-linejoin="round" transform="translate(10 15)">
            <path d="M1.667 7.778h-.278A1.389 1.389 0 0 1 0 6.388V3.682C0 3.029.529 2.5 1.18 2.5h.994c.119 0 .232-.05.311-.14L4.583 0h7.5l4.445 3.333h1.25c1.227 0 2.222.995 2.222 2.223v.833c0 .767-.622 1.389-1.389 1.389h-.278"/>
            <circle cx="3.472" cy="7.778" r="1.806"/>
            <circle cx="16.528" cy="7.778" r="1.806"/>
            <path d="M5.278 7.778h9.444M5.139 1.667l-.695 1.666h3.334M9.583 1.667v1.666h4.306M10.417 5.139h.972"/>
        </g>
    </g>
</svg>
