<svg xmlns="http://www.w3.org/2000/svg" width="22" height="12" viewBox="0 0 22 12">
    <g fill="none" fill-rule="evenodd" stroke="#FFF" stroke-linecap="round" stroke-linejoin="round" stroke-width="1.5" transform="translate(1 1)">
        <path d="M1.667 7.778h-.278A1.389 1.389 0 0 1 0 6.388V3.682C0 3.029.529 2.5 1.18 2.5h.994c.119 0 .232-.05.311-.14L4.583 0h7.5l4.445 3.333h1.25c1.227 0 2.222.995 2.222 2.223v.833c0 .767-.622 1.389-1.389 1.389h-.278"/>
        <circle cx="3.472" cy="7.778" r="1.806"/>
        <circle cx="16.528" cy="7.778" r="1.806"/>
        <path d="M5.278 7.778h9.444M6.583 3.333h4.306"/>
    </g>
</svg>
