<svg xmlns="http://www.w3.org/2000/svg" width="42" height="42" viewBox="0 0 42 42">
    <g fill="none" fill-rule="evenodd" transform="translate(1 1)">
        <rect width="40" height="40" fill="#FFF" stroke="#F1F1F1" rx="5"/>
        <g stroke="#61b58e" stroke-linecap="round" stroke-linejoin="round">
            <path d="M22.607 12l.916.916-.774 2.077 2.056-.794 3.502 3.501-4.163 4.164a1.454 1.454 0 0 1-2.057 0l-.575-.576a.576.576 0 0 0-.855.045l-3.247 4.01a1.71 1.71 0 0 1-2.54.134 1.717 1.717 0 0 1 .13-2.545l3.998-3.261a.576.576 0 0 0 .043-.854l-.587-.587a1.468 1.468 0 0 1 0-2.077L22.607 12zM18.998 15.608l5.7 5.7"/>
        </g>
    </g>
</svg>
