<svg xmlns="http://www.w3.org/2000/svg" xmlns:xlink="http://www.w3.org/1999/xlink" width="280" height="174" viewBox="0 0 280 174">
    <defs>
        <path id="a" d="M0 .719h279.15v172.934H0z"/>
        <path id="c" d="M6.73 174.282h265.69a6.73 6.73 0 0 0 6.73-6.73V8.077a6.73 6.73 0 0 0-6.73-6.731H6.73A6.73 6.73 0 0 0 0 8.077v159.474a6.73 6.73 0 0 0 6.73 6.731z"/>
    </defs>
    <g fill="none" fill-rule="evenodd" transform="translate(0 -1)">
        <g transform="translate(0 .628)">
            <mask id="b" fill="#fff">
                <use xlink:href="#a"/>
            </mask>
            <path fill="#FFF" d="M279.151 159.208c0 7.98-6.433 14.445-14.365 14.445H14.361c-7.931 0-14.36-6.465-14.36-14.445V15.168C0 7.184 6.43.718 14.36.718h250.425c7.932 0 14.365 6.466 14.365 14.45v144.04z" mask="url(#b)"/>
        </g>
        <path fill="#536E86" d="M25.41 80.735a6.493 6.493 0 0 0 6.498 6.498h6.881v-7.27H25.41v.772z"/>
        <mask id="d" fill="#fff">
            <use xlink:href="#c"/>
        </mask>
        <use fill="#F6FCF9" xlink:href="#c"/>
        <path fill="#F7D2B5" d="M25.41 77.654h13.38v-7.419H25.41zM25.41 57.427v.775h13.38V50.93h-6.882a6.496 6.496 0 0 0-6.498 6.498M59.25 50.928H41.097V87.233h9.232V58.205h15.419v-.78a6.499 6.499 0 0 0-6.498-6.497M25.41 67.93h13.38v-7.42H25.41z" mask="url(#d)"/>
        <path fill="#F7D2B5" d="M52.637 67.93H65.75v-7.42H52.637zM52.637 77.654H65.75v-7.419H52.637zM52.636 87.234h6.615a6.499 6.499 0 0 0 6.498-6.498v-.775H52.636v7.273z" mask="url(#d)"/>
        <path fill="#232323" d="M18.24 63.067l-6.017 6.017 6.017 6.013z" mask="url(#d)"/>
        <path fill="#F1C40F" d="M242.8 133.91c-1.84 0-3.593.358-5.209.988 4.265 2.924 7.06 7.823 7.06 13.38s-2.795 10.455-7.06 13.38c1.616.63 3.368.989 5.21.989 7.935 0 14.369-6.438 14.369-14.37 0-7.935-6.434-14.368-14.37-14.368" mask="url(#d)"/>
        <path fill="#E74C3C" d="M242.8 148.277c0-5.31-2.895-9.943-7.184-12.43a14.301 14.301 0 0 0-7.184-1.94c-7.936 0-14.369 6.434-14.369 14.37 0 7.935 6.433 14.373 14.369 14.373 2.62 0 5.068-.715 7.184-1.943 4.29-2.484 7.185-7.116 7.185-12.43" mask="url(#d)"/>
        <path fill="#232323" d="M28.074 106.961c-.424 0-.816-.234-.816-.82 0-.59.392-.815.816-.815h5.63c.933 0 1.631.702 1.631 1.635v3.138c0 .654-.129 1.13-.634 1.587.505.457.634.933.634 1.583v3.146c0 .93-.698 1.632-1.631 1.632h-5.63c-.424 0-.816-.226-.816-.816s.392-.816.816-.816h5.63v-2.718c0-.916-.36-1.191-.82-1.191h-3.207c-.424 0-.815-.234-.815-.82 0-.59.391-.816.815-.816h3.207c.46 0 .82-.282.82-1.195v-2.714h-5.63zM45.478 116.414v-3.303c0-.477.21-.82.816-.82.61 0 .82.343.82.82v4.12c0 .593-.392.815-.82.815H39.85c-.424 0-.816-.222-.816-.816 0-.585.392-.816.816-.816h2.407v-9.454h-2.407c-.424 0-.816-.23-.816-.82 0-.585.392-.815.816-.815h4.042v11.09h1.587zM56.434 112.262v-4.733c0-.404.198-.816.82-.816.622 0 .816.412.816.816v4.733c.428 0 .82.226.82.815 0 .59-.392.816-.82.816v3.336c0 .525-.226.82-.816.82s-.82-.295-.82-.82v-3.336H51.63v-7.754c0-.407.193-.815.815-.815.622 0 .816.407.816.815v6.123h3.174zM69.029 116.414v-3.303c0-.477.214-.82.82-.82.605 0 .815.343.815.82v4.12c0 .593-.392.815-.816.815H63.4c-.424 0-.816-.222-.816-.816 0-.585.392-.816.816-.816h2.407v-9.454h-2.407c-.424 0-.816-.23-.816-.82 0-.585.392-.815.816-.815h4.043v11.09h1.587zM89.39 110.87h3.01c.524 0 .916.08 1.308.456.46.428.508.816.508 1.39v3.5c0 .505-.048.869-.391 1.277-.412.492-.836.553-1.426.553h-3.63c-.424 0-.67-.11-1.079-.29l-.622-.275c-.444-.198-.932-.348-.932-.921 0-.424.359-.816.787-.816.194 0 .34.049.521.13l.489.213c.23.097.605.327.868.327h3.78v-3.909h-4.826v-7.18h5.642c.428 0 .82.23.82.816 0 .59-.392.82-.82.82H89.39v3.909zM99.548 109.51h4.806v-2.55h-4.806v2.55zm4.806 1.635h-5.626a.827.827 0 0 1-.816-.816v-4.188a.83.83 0 0 1 .816-.816h6.446a.83.83 0 0 1 .815.816v11.09c0 .44-.323.815-.815.815h-.82a.798.798 0 0 1-.816-.815c0-.489.343-.816.816-.816v-5.27zM111.32 116.414h5.63c.424 0 .816.23.816.816 0 .594-.392.816-.816.816h-7.265v-5.33c0-1.228.622-1.846 1.85-1.846h4.595v-3.91h-5.63c-.424 0-.815-.23-.815-.82 0-.585.391-.815.815-.815h5.432c.541 0 .917.08 1.325.456.456.428.509.868.509 1.458v3.352c0 .59-.053 1.03-.51 1.458-.407.375-.783.456-1.324.456h-4.612v3.91zM123.096 116.415h4.81v-2.52h-4.81v2.52zm0-4.152h5.464c.82 0 .982.344.982 1.09v3.664c0 .77-.327 1.03-1.062 1.03h-5.957c-.767 0-1.062-.275-1.062-1.03V106.14c0-.376.129-.816.702-.816h.982c.424 0 .767.392.767.816 0 .493-.343.82-.816.82v5.302zM148.268 110.87h3.008c.525 0 .917.08 1.309.456.456.428.505.816.505 1.39v3.5c0 .505-.049.869-.388 1.277-.412.492-.836.553-1.426.553h-3.63c-.428 0-.67-.11-1.083-.29l-.617-.275c-.445-.198-.937-.348-.937-.921 0-.424.36-.816.787-.816a1.2 1.2 0 0 1 .525.13l.489.213c.23.097.606.327.868.327h3.776v-3.909h-4.822v-7.18h5.642c.428 0 .816.23.816.816 0 .59-.388.82-.816.82h-4.006v3.909zM157.603 106.961c-.424 0-.816-.234-.816-.82 0-.59.392-.815.816-.815h5.633c.93 0 1.632.702 1.632 1.635v3.138c0 .654-.13 1.13-.638 1.587.509.457.638.933.638 1.583v3.146c0 .93-.703 1.632-1.632 1.632h-5.633c-.424 0-.816-.226-.816-.816s.392-.816.816-.816h5.633v-2.718c0-.916-.363-1.191-.824-1.191h-3.206c-.424 0-.82-.234-.82-.82 0-.59.396-.816.82-.816h3.206c.46 0 .824-.282.824-1.195v-2.714h-5.633zM171.816 110.87h3.013c.521 0 .917.08 1.304.456.46.428.51.816.51 1.39v3.5c0 .505-.05.869-.392 1.277-.408.492-.832.553-1.422.553h-3.63c-.429 0-.67-.11-1.083-.29l-.622-.275c-.44-.198-.933-.348-.933-.921 0-.424.36-.816.788-.816a1.2 1.2 0 0 1 .525.13l.489.213c.226.097.601.327.864.327h3.78v-3.909h-4.826v-7.18h5.641c.429 0 .82.23.82.816 0 .59-.391.82-.82.82h-4.006v3.909zM183.609 110.87h1.538v-3.91h-1.538v3.91zm-1.632 5.545h4.806v-3.91h-4.806v3.91zm3.986-11.09c.557 0 .82.392.82.816v4.729c.505 0 .9.178 1.191.456.295.279.444.687.444 1.196v3.893c0 .997-.621 1.631-1.635 1.631h-4.806c-1.018 0-1.64-.634-1.64-1.631v-3.893c0-.51.146-.917.445-1.196.29-.278.686-.456 1.195-.456v-4.729c0-.424.259-.816.816-.816h3.17zM205.525 109.51h4.81v-2.55h-4.81v2.55zm4.81 1.635h-5.63a.83.83 0 0 1-.82-.816v-4.188c0-.424.364-.816.82-.816h6.446a.83.83 0 0 1 .816.816v11.09c0 .44-.327.815-.816.815h-.816a.8.8 0 0 1-.82-.815c0-.489.344-.816.82-.816v-5.27zM217.3 106.961c0 .36-.295.816-.82.816-.52 0-.816-.456-.816-.816v-.82c0-.359.295-.815.816-.815h7.265v4.74c0 .574.016.639-.444 1.03l-2.286 1.983c-.428.372-.46.408-.46.978v3.174c0 .525-.23.816-.816.816-.59 0-.82-.291-.82-.816v-3.942c0-.537.016-.59.424-.949l2.254-1.946c.545-.477.509-.46.509-1.175v-2.258H217.3zM229.078 109.51h4.805v-2.55h-4.805v2.55zm4.805 1.635h-5.625a.827.827 0 0 1-.82-.816v-4.188a.83.83 0 0 1 .82-.816h6.445a.83.83 0 0 1 .816.816v11.09c0 .44-.327.815-.816.815h-.82a.798.798 0 0 1-.815-.815c0-.489.343-.816.815-.816v-5.27zM240.032 106.961c-.424 0-.815-.234-.815-.82 0-.59.391-.815.815-.815h5.63c.929 0 1.636.702 1.636 1.635v3.138c0 .654-.13 1.13-.638 1.587.508.457.638.933.638 1.583v3.146c0 .93-.707 1.632-1.636 1.632h-5.63c-.424 0-.815-.226-.815-.816s.391-.816.815-.816h5.63v-2.718c0-.916-.36-1.191-.824-1.191h-3.202c-.424 0-.82-.234-.82-.82 0-.59.396-.816.82-.816h3.202c.465 0 .824-.282.824-1.195v-2.714h-5.63z" mask="url(#d)"/>
        <path fill="#3FB17C" d="M37.094 32.545c-.586.291-1.894.602-3.607.602-4.85 0-7.35-3.02-7.35-7.019 0-4.785 3.417-7.455 7.665-7.455 1.648 0 2.896.331 3.457.63l-.646 2.516a6.849 6.849 0 0 0-2.665-.52c-2.52 0-4.479 1.522-4.479 4.643 0 2.815 1.668 4.584 4.499 4.584.957 0 2.023-.21 2.645-.456l.48 2.475zM38.98 26.11c0-1.5-.04-2.476-.084-3.353h2.73l.105 1.874h.085c.517-1.478 1.769-2.104 2.746-2.104.29 0 .436 0 .666.04v2.98c-.23-.04-.5-.08-.852-.08-1.167 0-1.958.622-2.168 1.6-.04.21-.061.46-.061.71v5.161h-3.166V26.11zM52.889 26.693c0-.768-.336-2.064-1.79-2.064-1.332 0-1.877 1.208-1.958 2.064h3.748zM49.16 28.86c.105 1.309 1.393 1.935 2.875 1.935 1.083 0 1.955-.15 2.811-.416l.416 2.144c-1.042.416-2.31.626-3.687.626-3.457 0-5.436-1.999-5.436-5.19 0-2.58 1.603-5.43 5.145-5.43 3.292 0 4.54 2.56 4.54 5.08 0 .54-.061 1.017-.106 1.251h-6.558zM64.422 27.068c0-.17-.02-.396-.044-.562-.186-.856-.872-1.563-1.854-1.563-1.433 0-2.185 1.293-2.185 2.896 0 1.728.857 2.81 2.165 2.81.917 0 1.648-.625 1.834-1.518.064-.23.084-.46.084-.73v-1.333zm3.166-8.913v11.743c0 1.147.04 2.355.081 3.041h-2.81l-.146-1.498h-.04c-.646 1.143-1.874 1.729-3.19 1.729-2.416 0-4.35-2.06-4.35-5.226-.02-3.437 2.124-5.416 4.56-5.416 1.251 0 2.229.436 2.685 1.143h.044v-5.516h3.166zM70.12 32.94h3.166V22.759H70.12v10.18zm3.271-13.016c0 .876-.666 1.583-1.708 1.583-1.002 0-1.668-.707-1.644-1.583-.024-.917.642-1.603 1.664-1.603 1.022 0 1.668.686 1.688 1.603zM79.363 19.842v2.916h2.27v2.33h-2.27v3.687c0 1.232.291 1.79 1.252 1.79.396 0 .707-.037.937-.081l.02 2.394c-.415.17-1.167.271-2.06.271-1.02 0-1.877-.351-2.374-.876-.585-.602-.876-1.58-.876-3.021v-4.164h-1.353v-2.33h1.353V20.55l3.101-.707zM92.544 32.482c-.792.356-2.06.667-3.643.667-3.542 0-5.69-2.23-5.69-5.808 0-2.649 1.066-5.169 3-6.772 1.438-1.228 3.231-1.894 5.29-1.894 1.564 0 2.666.396 3.042.686l-.562 1.398c-.52-.311-1.522-.586-2.77-.586a5.954 5.954 0 0 0-4.022 1.583c-1.309 1.228-2.14 3.207-2.14 5.33 0 2.52 1.142 4.585 4.268 4.585 1.058 0 2.225-.206 2.997-.606l.23 1.417zM101.973 24.153a4.588 4.588 0 0 0-1.207-.145c-2.605 0-4.73 2.73-4.75 5.516 0 1.123.396 2.23 1.729 2.23 1.438 0 3.146-1.875 3.643-4.56l.585-3.041zm-1.127 8.788c0-.606.105-1.563.23-2.605h-.04c-1.106 2.084-2.48 2.83-3.917 2.83-1.769 0-2.892-1.413-2.892-3.33 0-3.498 2.581-7.206 6.975-7.206.957 0 2.02.17 2.706.396l-1.018 5.25c-.335 1.749-.48 3.538-.44 4.665h-1.604zM105.028 32.94l1.228-6.494c.25-1.317.42-2.65.52-3.586h1.523c-.085.71-.17 1.413-.27 2.189h.06c.646-1.377 1.728-2.42 3.081-2.42.15 0 .356.02.48.045l-.33 1.708a2.207 2.207 0 0 0-.46-.044c-1.499 0-2.832 1.813-3.272 4.168l-.832 4.434h-1.728zM119.353 24.445c-.355-.234-.936-.42-1.667-.42-2.415 0-4.29 2.564-4.29 5.25 0 1.207.417 2.48 1.899 2.48 1.329 0 2.932-1.519 3.372-3.793l.686-3.517zm2.896-6.292l-2.209 11.598c-.206 1.042-.376 2.21-.436 3.19h-1.583l.27-2.002h-.04c-.917 1.442-2.189 2.229-3.627 2.229-1.958 0-3.02-1.603-3.02-3.663 0-3.582 2.67-6.873 6.231-6.873.642 0 1.349.145 1.79.355l.896-4.834h1.728zM213.57 31.433c.221.028.492.028.88.028 1.025 0 1.926-.363 1.926-1.353 0-.949-.9-1.324-2.035-1.324h-.772v2.65zm0-4.172h.746c1.188 0 1.826-.456 1.826-1.155 0-.714-.582-1.09-1.608-1.09a6.51 6.51 0 0 0-.965.057v2.188zm-2.246-3.598c.597-.113 1.801-.198 2.928-.198 1.385 0 2.233.13 2.956.53.698.35 1.207.993 1.207 1.84 0 .837-.52 1.624-1.651 2.012v.028c1.142.295 1.99 1.107 1.99 2.314 0 .852-.411 1.523-1.041 2-.723.54-1.943.847-3.934.847-1.114 0-1.95-.068-2.455-.141v-9.232zM225.12 28.937l-.621-1.995c-.178-.557-.356-1.256-.505-1.813h-.032c-.15.557-.295 1.268-.457 1.813l-.601 1.995h2.217zm-2.54 1.595l-.714 2.407h-2.35l3.065-9.401h2.968l3.11 9.401h-2.44l-.771-2.407h-2.867zM230 32.94v-9.402h2.644l2.08 3.445a26.824 26.824 0 0 1 1.636 3.223h.044c-.15-1.24-.194-2.512-.194-3.922v-2.746h2.084v9.402h-2.378l-2.14-3.627a34.382 34.382 0 0 1-1.741-3.32l-.045.013c.06 1.244.093 2.568.093 4.103v2.83H230zM240.257 23.538h2.25v4.155h.04c.222-.363.464-.698.682-1.033l2.278-3.122h2.774l-3.311 4.002 3.493 5.4h-2.645l-2.451-4.06-.86.99v3.07h-2.25v-9.402z" mask="url(#d)"/>
        <path fill="#536E86" d="M28.143 151.388c0 3.893.715 4.144 1.725 4.144 1.143 0 1.724-.46 1.724-4.144 0-3.832-.67-4.163-1.724-4.163-1.874 0-1.725 2.189-1.725 4.163m4.487 0c0 1.591.27 5.08-2.762 5.08-3.033 0-2.763-3.371-2.763-5.08 0-2.334-.12-5.1 2.763-5.1 3.15 0 2.762 3.986 2.762 5.1M38.803 155.533c1.22 0 1.74-1.074 1.74-2.274 0-1.13-.343-2.29-1.663-2.29-.715 0-1.325.49-1.83.966.013 3.11.845 3.598 1.753 3.598zm1.797-7.564c-.46-.404-.953-.747-1.59-.747-1.798 0-1.915 2.294-1.96 3.614.594-.505 1.188-.8 1.975-.8 1.874 0 2.557 1.543 2.557 3.179 0 1.769-.953 3.25-2.856 3.25-2.552 0-2.717-3.089-2.717-4.975 0-2.019.254-5.201 2.96-5.201.816 0 1.599.31 2.197.864l-.566.816zM45.169 156.736l4.397-11.501h.683l-4.398 11.501zM56.318 147.626l-1.814.698-.31-.908 3.121-1.188v9.216h2.124v.889h-5.617v-.889h2.496zM63.129 146.423h5.08v.893h-4.083v3.049c.489-.182.95-.315 1.47-.315 1.454 0 2.686.98 2.686 2.629 0 1.292-.683 2.366-1.749 3.049-.775.488-1.785.739-3.72.739v-.933c1.24 0 2.234-.077 2.9-.432.893-.477 1.535-1.381 1.535-2.423 0-1.054-.715-1.692-1.757-1.692-.622 0-1.114.234-1.651.52h-.711v-5.084z" mask="url(#d)"/>
    </g>
</svg>
