<svg xmlns="http://www.w3.org/2000/svg" width="11" height="20" viewBox="0 0 11 20">
    <path fill="#385C8E" fill-rule="nonzero" d="M.35 10.652h2.192v9.025c0 .179.144.323.322.323h3.717a.323.323 0 0 0 .323-.323v-8.982h2.52a.323.323 0 0 0 .32-.286l.383-3.323a.323.323 0 0 0-.32-.36H6.904V4.645c0-.628.338-.947 1.005-.947h1.898a.323.323 0 0 0 .323-.322V.325a.323.323 0 0 0-.323-.323H7.191L7.071 0C6.617 0 5.04.09 3.794 1.236 2.413 2.506 2.604 4.027 2.65 4.29v2.436H.349a.323.323 0 0 0-.322.322v3.28c0 .179.144.323.322.323z"/>
</svg>
