<svg xmlns="http://www.w3.org/2000/svg" width="42" height="19" viewBox="0 0 42 19">
    <g fill="none" fill-rule="evenodd" stroke="#61b58e" stroke-linecap="round" stroke-linejoin="round" transform="translate(1 1)">
        <circle cx="6.974" cy="13.128" r="3.436"/>
        <circle cx="33.026" cy="13.128" r="3.436"/>
        <path d="M3.795 14.423L.05 12.359l.205-6.564 1.95-2.974-.719-1.334S10.41.051 13.385.051c10.974 0 18.461 5.539 18.461 5.539s3.622.144 5.23 1.128c1.847 1.128 2.873 2.667 2.873 3.487v4.205l-3.74.013M10.41 14.459h19.433M15.077.095l2.256 14.315"/>
        <path d="M31.846 5.59H9.795L5.179.974M38.103 10.356h1.846M20.462 8.408h1.948M.245 6.152h4.627L3.026 9.077H.154"/>
    </g>
</svg>
