<svg xmlns="http://www.w3.org/2000/svg" width="15" height="14" viewBox="0 0 15 14">
    <path fill="#FFF" fill-rule="nonzero" d="M7.499.183a.642.642 0 0 0-.337.114L.21 5.785c-.18.177-.305.56-.12.795a.568.568 0 0 0 .794.068L7.499 1.43l6.614 5.22c.223.198.619.172.795-.07.154-.211.116-.617-.12-.794L7.835.297A.56.56 0 0 0 7.5.183zM2.011 7.637v5.07c0 .303.246.55.549.55h3.476a.549.549 0 0 0 .548-.55v-2.195a.9.9 0 0 1 .915-.914.9.9 0 0 1 .915.914v2.195c0 .303.245.55.548.55h3.476a.549.549 0 0 0 .549-.55V7.088a.549.549 0 0 0-1.098 0v5.07H9.511v-1.646A2.02 2.02 0 0 0 7.5 8.5a2.02 2.02 0 0 0-2.012 2.012v1.647H3.109v-5.62c-.606 0-1.098.492-1.098 1.098z"/>
</svg>
