<svg xmlns="http://www.w3.org/2000/svg" width="15" height="14" viewBox="0 0 15 14">
    <g fill="#3FB17C" fill-rule="nonzero">
        <path d="M10.614 6.594H8.546V3.048a.522.522 0 0 0-1.044 0v4.068c0 .289.234.522.522.522h2.59a.522.522 0 0 0 0-1.044z"/>
        <path d="M12.997 1.99a6.671 6.671 0 0 0-9.423 0A6.631 6.631 0 0 0 1.64 6.243l-.679-.73a.523.523 0 0 0-.766.71l1.512 1.629a.521.521 0 0 0 .739.027l1.628-1.512a.523.523 0 0 0-.711-.766l-.668.62a5.587 5.587 0 0 1 1.62-3.494 5.625 5.625 0 0 1 7.944 0 5.625 5.625 0 0 1 0 7.945 5.58 5.58 0 0 1-3.972 1.645c-1.5 0-2.911-.584-3.973-1.645a.523.523 0 0 0-.739.739 6.62 6.62 0 0 0 4.712 1.951 6.62 6.62 0 0 0 4.711-1.951 6.67 6.67 0 0 0 0-9.423z"/>
    </g>
</svg>
