<svg xmlns="http://www.w3.org/2000/svg" width="42" height="17" viewBox="0 0 42 17">
    <g fill="none" fill-rule="evenodd" stroke="#B5B5B5" stroke-linecap="round" stroke-linejoin="round">
        <path d="M38.165 13.423h2.75V9.34a2.44 2.44 0 0 0-1.231-2.12 15.525 15.525 0 0 0-7.705-2.046H10.673L8.552 3.054c-.928.417-1.826.896-2.69 1.434l-4.81.687v5.567c0 .787.478 1.494 1.209 1.787l2.227.894h.79M12.014 13.423h19.279"/>
        <path d="M10.673 5.175H31.98L29.48 3.812a22.605 22.605 0 0 0-10.824-2.76h-.81a22.613 22.613 0 0 0-9.294 2.002l2.121 2.121zM31.292 12.735a3.436 3.436 0 1 0 6.872 0 3.436 3.436 0 0 0-6.872 0zM5.21 12.735a3.402 3.402 0 1 0 6.803 0 3.402 3.402 0 0 0-6.804 0zM18.956 1.052v12.37M3.25 7.272H1.053M23.972 7.272H22.22"/>
    </g>
</svg>
