<svg xmlns="http://www.w3.org/2000/svg" width="42" height="19" viewBox="0 0 42 19">
    <g fill="none" fill-rule="evenodd" stroke="#B5B5B5" stroke-linecap="round" stroke-linejoin="round">
        <path d="M31.965 15.358h-.87s-10.275-.075-18.022-.274l18.892.274zM5.337 14.722s-3.101-.239-3.816-.798c0 0-.875-1.197-.239-2.625 0 0 .4-.636.717-1.033 0 0-.319-1.197-.239-2.147 0 0 .716-1.75 2.306-4.134 0 0-1.272-.798-.399-.798 0 .008 8.904-3.52 17.782-1.526 3.44.773 3.848 1.929 8.859 5.508 0 0 9.781.954 10.174 2.226 0 0 1.273 4.056-.399 5.17l-.65.157"/>
        <path d="M9.487 11.282a3.392 3.392 0 1 0 0 6.783 3.392 3.392 0 0 0 0-6.783zM35.331 11.317a3.359 3.359 0 1 0 0 6.717 3.359 3.359 0 0 0 0-6.717zM30.277 7.198L2.679 6.4l27.598.798zM12.322 1.479l-.898 5.12.898-5.12z"/>
        <path d="M19.97 1.878l.531 5.054.499 8.31zM23.643 10.04h1.696-1.696z"/>
    </g>
</svg>
