<svg xmlns="http://www.w3.org/2000/svg" width="18" height="36" viewBox="0 0 18 36">
    <path fill="#232323" fill-rule="nonzero" d="M16.417 10.105S18.108 0 8.991 0C.146 0 1.564 10.105 1.564 10.105s-1.729.317-1.324 1.542c0 0 .35.34 1.806-.437l-.099 12.642s-.416.821-.416 3.874c0 11.02 14.918 11.02 14.918 0 0-3.053-.415-3.874-.415-3.874l-.099-12.642c1.455.777 1.806.437 1.806.437.406-1.225-1.324-1.542-1.324-1.542zM9.042 33.027c-2.812 0-5-2.98-5-2.98l.003-3.564s1.956 3.659 5.075 3.659 4.869-3.762 4.869-3.762l.072 3.667s-2.207 2.98-5.019 2.98zm4.876-21.039s-1.194-1.065-4.772-1.065c-3.58 0-4.947 1.202-4.947 1.202L2.802 8.862s1.839-2.473 6.25-2.473c4.409 0 6.249 2.524 6.249 2.524l-1.383 3.075z"/>
</svg>
