<svg xmlns="http://www.w3.org/2000/svg" width="20" height="22" viewBox="0 0 20 22">
    <path fill="#B5B5B5" fill-rule="nonzero" d="M16.349 7.652V4.587h1.24a.62.62 0 0 0 0-1.24h-1.48a1 1 0 0 0-1 1v2.74a7.169 7.169 0 0 0-1.358-.324 3.104 3.104 0 0 0-1.384-2.134c.368-.404.593-.941.593-1.53v-.826A2.275 2.275 0 0 0 10.688 0a2.275 2.275 0 0 0-2.273 2.273v.826c0 .589.225 1.126.593 1.53a3.098 3.098 0 0 0-1.42 2.602v2.686H5.197a1 1 0 0 0-.85.473l-3.83 6.165a1 1 0 0 0 .281 1.35l1.71 1.182a1 1 0 0 0 1.287-.128l2.251-2.33a7.276 7.276 0 0 0 2.155 2.915 7.248 7.248 0 0 0 4.553 1.613c3.987 0 7.231-3.244 7.231-7.231a7.243 7.243 0 0 0-3.636-6.274zm-6.694-5.38a1.034 1.034 0 0 1 2.066 0V3.1a1.034 1.034 0 0 1-2.066 0v-.826zm-6.61 15.68l-1.354-.936 3.639-5.859h3.498V7.231c0-1.025.834-1.86 1.86-1.86 1.025 0 1.86.835 1.86 1.86v4.133c0 1.025-.835 1.86-1.86 1.86H7.615l-4.57 4.727zm9.709 1.965c-2.646 0-4.999-1.778-5.745-4.283l1.132-1.171h2.547c1.708 0 3.099-1.39 3.099-3.1v-3.34a6 6 0 0 1 4.958 5.903 5.999 5.999 0 0 1-5.991 5.991z"/>
</svg>
