<svg xmlns="http://www.w3.org/2000/svg" width="16" height="14" viewBox="0 0 16 14">
    <path fill="#FFF" fill-rule="evenodd" d="M4.706 2.824V1.41C4.706.63 5.336 0 6.116 0h3.769c.778 0 1.41.633 1.41 1.41v1.414h2.824c1.039 0 1.881.843 1.881 1.88v7.062a1.882 1.882 0 0 1-1.88 1.881H1.88A1.882 1.882 0 0 1 0 11.766V4.705c0-1.039.843-1.881 1.88-1.881h2.826zm1.176 6.588H3.766A1.882 1.882 0 0 1 1.882 7.53V3.765h-.001a.94.94 0 0 0-.94.94v7.06c0 .52.421.94.94.94h12.238a.94.94 0 0 0 .94-.94v-7.06a.94.94 0 0 0-.94-.94h-.001V7.53c0 1.04-.843 1.88-1.884 1.88h-2.116v.236c0 .52-.422.941-.943.941h-2.35a.94.94 0 0 1-.943-.94v-.236zm4.236-.941h2.116a.94.94 0 0 0 .942-.94V3.765H2.824V7.53c0 .519.421.94.942.94h2.116v-.236c0-.52.422-.94.943-.94h2.35c.52 0 .943.419.943.94v.236zM6.824 9.647h2.351l.001-1.412H6.825l-.001 1.412zm3.529-8.236a.47.47 0 0 0-.468-.47h-3.77a.469.469 0 0 0-.468.47v1.413h4.706V1.41z"/>
</svg>
