<?xml version="1.0" encoding="utf-8"?>
<!-- Generator: Adobe Illustrator 24.2.1, SVG Export Plug-In . SVG Version: 6.00 Build 0)  -->
<svg version="1.1" id="Layer_1" xmlns="http://www.w3.org/2000/svg" xmlns:xlink="http://www.w3.org/1999/xlink" x="0px" y="0px"
	 viewBox="0 0 70 70" style="enable-background:new 0 0 70 70;" xml:space="preserve">
<g>
	<g>
		<path fill="#fff" class="st1" d="M27.3,8.5h15.3c0.8,0,1.3-0.6,1.1-1.4l-0.8-4.2c-0.2-0.8-0.9-1.3-1.7-1.4H28.7c-0.8,0-1.5,0.6-1.7,1.4
			l-0.8,4.2c-0.1,0.6,0.2,1.2,0.8,1.3C27.1,8.4,27.2,8.5,27.3,8.5z M69.8,30.4c0-2.1-1.7-3.8-3.8-3.8h-4.6l-3.3-8.6
			c-0.8-2.1-3.3-4.4-5.5-5c0,0-5.7-1.6-17.6-1.6s-17.6,1.6-17.6,1.6c-2.2,0.6-4.7,2.9-5.5,5l-3.3,8.6H4c-2.1,0-3.8,1.7-3.8,3.8
			c0,2.1,1.7,3.8,3.8,3.8h1.6l-1.2,3.1C3.7,39.4,3,43,3,45.3v18.1c0,2.7,2.2,4.9,4.9,4.9s4.9-2.2,4.9-4.9v-2.8h44.5v2.8
			c0,2.7,2.2,4.9,4.9,4.9c2.7,0,4.9-2.2,4.9-4.9V45.3c0-2.3-0.7-5.9-1.5-8.1l-1.2-3.1H66C68.1,34.2,69.8,32.5,69.8,30.4z M12.5,31.5
			l3.9-10.6c0.3-0.8,1.1-1.3,1.9-1.3h33.4c0.8,0,1.6,0.6,1.9,1.3l3.9,10.6c0.3,0.7-0.1,1.3-0.9,1.3H13.4
			C12.7,32.8,12.2,32.2,12.5,31.5z M12.4,48.8c-2.1,0-3.8-1.7-3.8-3.8c0-2.1,1.7-3.8,3.8-3.8c2.1,0,3.8,1.7,3.8,3.8
			C16.2,47.1,14.5,48.8,12.4,48.8z M57.6,48.8c-2.1,0-3.8-1.7-3.8-3.8c0-2.1,1.7-3.8,3.8-3.8c0,0,0,0,0,0c2.1,0,3.8,1.7,3.8,3.8
			C61.4,47.1,59.7,48.8,57.6,48.8z"/>
	</g>
</g>
</svg>
