<svg xmlns="http://www.w3.org/2000/svg" xmlns:xlink="http://www.w3.org/1999/xlink" width="90" height="90" viewBox="0 0 90 90">
    <defs>
        <rect id="b" width="70" height="70" rx="35"/>
        <filter id="a" width="157.1%" height="157.1%" x="-28.6%" y="-14.3%" filterUnits="objectBoundingBox">
            <feOffset dy="10" in="SourceAlpha" result="shadowOffsetOuter1"/>
            <feGaussianBlur in="shadowOffsetOuter1" result="shadowBlurOuter1" stdDeviation="5"/>
            <feColorMatrix in="shadowBlurOuter1" values="0 0 0 0 0 0 0 0 0 0 0 0 0 0 0 0 0 0 0.1 0"/>
        </filter>
    </defs>
    <g fill="none" fill-rule="evenodd">
        <g transform="translate(10)">
            <use fill="#000" filter="url(#a)" xlink:href="#b"/>
            <use fill="#FFF" xlink:href="#b"/>
        </g>
        <g fill="#3FB17C" fill-rule="nonzero">
            <path d="M41.7 23.5h6.6c.33 0 .547-.265.482-.588l-.364-1.824a.764.764 0 0 0-.718-.588h-5.4a.764.764 0 0 0-.718.588l-.364 1.824a.474.474 0 0 0 .482.588zM60 32.95c0-.907-.742-1.65-1.65-1.65h-1.973l-1.43-3.72c-.356-.924-1.426-1.903-2.378-2.175 0 0-2.469-.705-7.569-.705s-7.57.706-7.57.706c-.951.272-2.02 1.25-2.376 2.174l-1.43 3.72H31.65c-.907 0-1.65.743-1.65 1.65 0 .908.743 1.65 1.65 1.65h.704l-.508 1.32c-.355.924-.646 2.49-.646 3.48v7.8c0 1.155.945 2.1 2.1 2.1 1.155 0 2.1-.945 2.1-2.1V46h19.2v1.2c0 1.155.945 2.1 2.1 2.1 1.155 0 2.1-.945 2.1-2.1v-7.8c0-.99-.291-2.556-.646-3.48l-.508-1.32h.704c.908 0 1.65-.742 1.65-1.65zm-24.693.487l1.685-4.574a.927.927 0 0 1 .808-.563h14.4c.33 0 .694.254.807.563l1.685 4.574c.114.31-.062.563-.392.563H35.7c-.33 0-.507-.254-.393-.563zM35.25 40.9a1.65 1.65 0 1 1 .001-3.301 1.65 1.65 0 0 1-.001 3.301zm19.5 0a1.65 1.65 0 1 1 0-3.3 1.65 1.65 0 0 1 0 3.3z"/>
        </g>
    </g>
</svg>
