<svg xmlns="http://www.w3.org/2000/svg" width="17" height="35" viewBox="0 0 17 35">
    <g fill="#FA7109" fill-rule="nonzero">
        <path d="M8.657 8.156a4.083 4.083 0 0 0 4.078-4.078A4.083 4.083 0 0 0 8.657 0 4.082 4.082 0 0 0 4.58 4.078a4.082 4.082 0 0 0 4.077 4.078zM16.963 20.326L13.66 10.09c-.177-.548-.766-.977-1.342-.977H4.996c-.575 0-1.165.429-1.342.977L.352 20.326c-.098.303-.058.61.111.843.17.232.45.365.768.365h.847c.576 0 1.165-.429 1.342-.977l.941-2.917v15.105c0 1.038.844 1.882 1.882 1.882h.132a1.884 1.884 0 0 0 1.882-1.882v-9.847h.8v9.847c0 1.038.845 1.882 1.882 1.882h.133a1.884 1.884 0 0 0 1.881-1.882V17.639l.942 2.918c.177.548.766.977 1.342.977h.847c.319 0 .599-.133.768-.365.17-.233.21-.54.111-.843z"/>
    </g>
</svg>
