<svg xmlns="http://www.w3.org/2000/svg" width="90" height="78" viewBox="0 0 90 78">
    <g fill="none" fill-rule="nonzero">
        <path fill="#FA7109" d="M65.298 2.563a1.319 1.319 0 0 0-1.664-.842l-.468.153v-.512a1.318 1.318 0 1 0-2.637 0v.512l-.468-.153a1.32 1.32 0 0 0-.821 2.505l.486.16-.306.425c-.63.875.005 2.089 1.069 2.089.768 0 1.067-.543 1.359-.949l.288.4a1.318 1.318 0 1 0 2.14-1.54l-.306-.425.486-.16a1.318 1.318 0 0 0 .842-1.663zM78.334 16.714a1.319 1.319 0 0 0-1.663-.842l-.468.153v-.512a1.318 1.318 0 1 0-2.637 0v.512l-.468-.153a1.32 1.32 0 0 0-.822 2.505l.486.16-.306.425a1.319 1.319 0 0 0 2.14 1.54l.288-.4c.277.385.58.949 1.36.949 1.061 0 1.7-1.212 1.068-2.09l-.305-.424.485-.16a1.318 1.318 0 0 0 .842-1.663z"/>
        <circle cx="60.732" cy="13.667" r="1.318" fill="#3FB17C"/>
        <circle cx="81.826" cy="35.008" r="1.318" fill="#3FB17C"/>
        <circle cx="68.115" cy="24.917" r="1.318" fill="#3FB17C"/>
        <circle cx="82.355" cy="7.69" r="1.318" fill="#3FB17C"/>
        <path fill="#FA7109" d="M57.997 16.785c-.686-.85-1.659-.935-1.659-.935a1.323 1.323 0 0 0-1.494 1.116 1.317 1.317 0 0 0 1.114 1.494l-2.352 2.293c-.31.304-.453.74-.38 1.167l.556 3.238h-.002c-3.873-2.038-3.192-2.025-7.036-.002h-.002l-.004.002.556-3.238a1.322 1.322 0 0 0-.378-1.167l-2.354-2.293 3.252-.472c.43-.064.8-.333.992-.721l1.455-2.946.573 1.162c.224.453.677.736 1.183.736a1.321 1.321 0 0 0 1.183-1.904l-.574-1.161c-.969-1.983-3.787-1.933-4.73 0l-1.147 2.323c-2.615.38-3.433.327-4.225 1.308a2.639 2.639 0 0 0-.598 1.682c-.01 1.368.789 1.872 2.652 3.69l-.437 2.556a2.614 2.614 0 0 0 .76 2.334c.51.494 1.169.75 1.841.75.823 0 1.113-.246 3.518-1.51h.001l2.294 1.205c1.745.925 3.869-.359 3.864-2.326a2.59 2.59 0 0 0-.039-.453l-.437-2.556 1.856-1.809c.99-.956 1.063-2.5.198-3.563z"/>
        <path fill="#3FB17C" d="M88.681 40.21H71.134l.626-.61c1.762-1.717.788-4.712-1.646-5.065l-3.386-.492-1.514-3.068c-1.089-2.207-4.237-2.206-5.326 0l-1.514 3.068-3.386.492c-2.434.354-3.407 3.348-1.645 5.065l.625.61h-4.717a2.633 2.633 0 0 0-.756-2.133l-7.458-7.458a2.64 2.64 0 0 0-3.729 0l-4.588 4.59-5.054-5.055a4.785 4.785 0 0 0-4.67-1.25 4.785 4.785 0 0 0-3.417 3.417l-2.643 9.864a6.55 6.55 0 0 0-3.486 3.486l-9.863 2.643c-3.595.962-4.8 5.453-2.167 8.087l5.053 5.054-4.588 4.588a2.635 2.635 0 0 0 0 3.73l7.457 7.457c.514.514 1.19.771 1.865.771s1.35-.257 1.864-.77l34.383-34.384h39.909v31.2a1.325 1.325 0 0 1-1.319 1.319H41.573a1.325 1.325 0 0 1-1.319-1.318V57.234a1.32 1.32 0 0 0-1.318-1.318 1.32 1.32 0 0 0-1.318 1.315v16.817a3.93 3.93 0 0 0 1.158 2.796 3.937 3.937 0 0 0 2.797 1.159h44.471A3.954 3.954 0 0 0 90 74.048v-32.52c0-.734-.6-1.318-1.318-1.318zm-66.556-7.206c.438-1.634 2.48-2.182 3.676-.985l5.054 5.054-6.094 6.094 1.59-5.937a1.318 1.318 0 1 0-2.546-.682l-1.531 5.715a6.545 6.545 0 0 0-2.469-.6l2.32-8.659zM18.4 44.455a3.936 3.936 0 0 1 3.99 1.083l-5.588 5.588c-2.234-2.105-1.31-5.822 1.598-6.67zM3.284 54.537a2.175 2.175 0 0 1-.57-2.123 2.175 2.175 0 0 1 1.554-1.553l8.66-2.32a6.55 6.55 0 0 0 .6 2.468L7.811 52.54a1.318 1.318 0 1 0 .683 2.547l5.936-1.59-6.094 6.094-5.053-5.054zm7.922 20.829L3.75 67.908l5.52-5.52 24.382-24.383 5.521-5.521 7.459 7.456-35.425 35.426zM69.92 37.712l-2.562 2.498h-9.612c-2.755-2.686-2.734-2.568-2.646-2.84.089-.273-.042-.18 4.34-.817.43-.063.8-.332.993-.722 1.966-3.983 1.834-3.875 2.12-3.875.284 0 .153-.108 2.118 3.875.192.39.563.66.993.722l4.072.591c.275.04.384.374.184.568z"/>
    </g>
</svg>
